<?xml version="1.0" encoding="UTF-8" standalone="no"?>
<svg width="297mm" height="210mm" viewBox="0 0 1540 1089" font-family="Arial, Helvetica, sans-serif" version="1.1" xmlns="http://www.w3.org/2000/svg" xmlns:xlink="http://www.w3.org/1999/xlink" xmlns:inkscape="http://www.inkscape.org/namespaces/inkscape" xmlns:sodipodi="http://sodipodi.sourceforge.net/DTD/sodipodi-0.dtd">
<defs>
<symbol id="tm-ar" viewBox="0 0 48 48" overflow="visible" inkscape:label="AR — Arroseur"><title>AR — Arroseur</title><g fill="none" stroke="#111111" stroke-width="2" stroke-linecap="round" stroke-linejoin="round">
  <line x1="10" y1="38" x2="38" y2="38"/>
  <line x1="24" y1="38" x2="24" y2="27"/>
  <circle cx="24" cy="24" r="5" fill="#1a4b9e" stroke="none"/>
  <line x1="24" y1="19" x2="24" y2="10" stroke="#1a4b9e" stroke-dasharray="2 3"/>
  <line x1="21" y1="20" x2="14" y2="13" stroke="#1a4b9e" stroke-dasharray="2 3"/>
  <line x1="27" y1="20" x2="34" y2="13" stroke="#1a4b9e" stroke-dasharray="2 3"/>
</g></symbol>
<symbol id="tm-reg" viewBox="0 0 48 48" overflow="visible" inkscape:label="REG — Regard"><title>REG — Regard</title><g fill="none" stroke="#111111" stroke-width="2" stroke-linecap="round" stroke-linejoin="round">
  <rect x="14" y="14" width="20" height="20" rx="2" fill="#ffffff" stroke="#1a7a3a"/>
  <line x1="20" y1="21" x2="28" y2="21" stroke="#1a7a3a"/>
  <line x1="20" y1="27" x2="28" y2="27" stroke="#1a7a3a"/>
</g></symbol>
<symbol id="tm-set" viewBox="0 0 48 48" overflow="visible" inkscape:label="SET — Sortie d'eau"><title>SET — Sortie d'eau</title><g fill="none" stroke="#111111" stroke-width="2" stroke-linecap="round" stroke-linejoin="round">
  <path d="M24,9 L39,24 L24,39 L9,24 Z" fill="#ffffff" stroke="#1a4b9e"/>
  <path d="M24,19 C27,23 27,27 24,30 C21,27 21,23 24,19 Z" fill="#1a4b9e" stroke="none"/>
</g></symbol>
<symbol id="tm-gk" viewBox="0 0 48 48" overflow="visible" inkscape:label="GK — Raccord Geka"><title>GK — Raccord Geka</title><g fill="none" stroke="#111111" stroke-width="2" stroke-linecap="round" stroke-linejoin="round">
  <line x1="6" y1="24" x2="15" y2="24"/>
  <line x1="33" y1="24" x2="42" y2="24"/>
  <circle cx="24" cy="24" r="9" fill="#ffffff" stroke="#111111"/>
  <circle cx="24" cy="24" r="4" fill="none" stroke="#111111"/>
  <rect x="21" y="8" width="6" height="5" rx="1" fill="#1a4b9e" stroke="none"/>
  <rect x="21" y="35" width="6" height="5" rx="1" fill="#1a4b9e" stroke="none"/>
</g></symbol>
<symbol id="tm-ev" viewBox="0 0 48 48" overflow="visible" inkscape:label="EV — Électrovanne"><title>EV — Électrovanne</title><g fill="none" stroke="#111111" stroke-width="2" stroke-linecap="round" stroke-linejoin="round">
  <line x1="6" y1="30" x2="14" y2="30"/>
  <line x1="34" y1="30" x2="42" y2="30"/>
  <path d="M14,23 L14,37 L24,30 Z" fill="#ffffff"/>
  <path d="M34,23 L34,37 L24,30 Z" fill="#ffffff"/>
  <line x1="24" y1="30" x2="24" y2="19"/>
  <rect x="18" y="9" width="12" height="10" rx="2" fill="#1a4b9e" stroke="#111111"/>
</g></symbol>
<symbol id="tm-vm" viewBox="0 0 48 48" overflow="visible" inkscape:label="VM — Vanne de réglage"><title>VM — Vanne de réglage</title><g fill="none" stroke="#111111" stroke-width="2" stroke-linecap="round" stroke-linejoin="round">
  <line x1="6" y1="32" x2="14" y2="32"/>
  <line x1="34" y1="32" x2="42" y2="32"/>
  <path d="M14,25 L14,39 L24,32 Z" fill="#ffffff"/>
  <path d="M34,25 L34,39 L24,32 Z" fill="#ffffff"/>
  <line x1="24" y1="32" x2="24" y2="17"/>
  <circle cx="24" cy="13" r="5" fill="#ffffff" stroke="#111111"/>
  <line x1="20" y1="16" x2="28" y2="10"/>
</g></symbol>
<symbol id="tm-vi" viewBox="0 0 48 48" overflow="visible" inkscape:label="VI — Vanne d'isolement"><title>VI — Vanne d'isolement</title><g fill="none" stroke="#111111" stroke-width="2" stroke-linecap="round" stroke-linejoin="round">
  <line x1="6" y1="30" x2="15" y2="30"/>
  <line x1="33" y1="30" x2="42" y2="30"/>
  <circle cx="24" cy="30" r="8" fill="#ffffff" stroke="#111111"/>
  <line x1="18" y1="30" x2="30" y2="30" stroke="#1a4b9e"/>
  <line x1="24" y1="22" x2="24" y2="10"/>
  <line x1="19" y1="10" x2="29" y2="10"/>
</g></symbol>
<symbol id="tm-fil" viewBox="0 0 48 48" overflow="visible" inkscape:label="FIL — Filtre"><title>FIL — Filtre</title><g fill="none" stroke="#111111" stroke-width="2" stroke-linecap="round" stroke-linejoin="round">
  <line x1="24" y1="8" x2="24" y2="14"/>
  <line x1="24" y1="34" x2="24" y2="40"/>
  <rect x="17" y="14" width="14" height="20" rx="2" fill="#ffffff"/>
  <line x1="20" y1="18" x2="28" y2="24" stroke="#1a4b9e"/>
  <line x1="20" y1="23" x2="28" y2="29" stroke="#1a4b9e"/>
  <line x1="20" y1="28" x2="28" y2="34" stroke="#1a4b9e"/>
</g></symbol>
<symbol id="tm-car" viewBox="0 0 48 48" overflow="visible" inkscape:label="CAR — Clapet anti-retour"><title>CAR — Clapet anti-retour</title><g fill="none" stroke="#111111" stroke-width="2" stroke-linecap="round" stroke-linejoin="round">
  <line x1="6" y1="24" x2="16" y2="24"/>
  <line x1="32" y1="24" x2="42" y2="24"/>
  <circle cx="24" cy="24" r="10" fill="#ffffff"/>
  <path d="M18,24 H30 M26,20 L30,24 L26,28"/>
  <line x1="20" y1="17" x2="30" y2="31" stroke="#1a4b9e"/>
</g></symbol>
<symbol id="tm-prg" viewBox="0 0 48 48" overflow="visible" inkscape:label="PRG — Purge / vidange"><title>PRG — Purge / vidange</title><g fill="none" stroke="#111111" stroke-width="2" stroke-linecap="round" stroke-linejoin="round">
  <path d="M12,16 H32 V24"/>
  <rect x="26" y="24" width="12" height="7" rx="1" fill="#ffffff"/>
  <line x1="32" y1="11" x2="32" y2="16"/>
  <line x1="27" y1="11" x2="37" y2="11"/>
  <path d="M32,36 C34,39 34,41 32,42 C30,41 30,39 32,36 Z" fill="#1a4b9e" stroke="none"/>
</g></symbol>
<symbol id="tm-cpt" viewBox="0 0 48 48" overflow="visible" inkscape:label="CPT — Compteur d'eau"><title>CPT — Compteur d'eau</title><g fill="none" stroke="#111111" stroke-width="2" stroke-linecap="round" stroke-linejoin="round">
  <line x1="6" y1="24" x2="14" y2="24"/>
  <line x1="34" y1="24" x2="42" y2="24"/>
  <circle cx="24" cy="24" r="11" fill="#ffffff"/>
  <line x1="24" y1="24" x2="24" y2="16" stroke="#1a4b9e"/>
  <line x1="24" y1="14" x2="24" y2="16"/>
  <line x1="35" y1="24" x2="33" y2="24"/>
  <line x1="13" y1="24" x2="15" y2="24"/>
</g></symbol>
<symbol id="tm-can" viewBox="0 0 48 48" overflow="visible" inkscape:label="— — Canalisation"><title>— — Canalisation</title><g fill="none" stroke="#111111" stroke-width="2" stroke-linecap="round" stroke-linejoin="round">
  <line x1="8" y1="24" x2="40" y2="24" stroke="#1a4b9e"/>
</g></symbol>
<symbol id="tm-prog" viewBox="0 0 48 48" overflow="visible" inkscape:label="PROG — Programmateur"><title>PROG — Programmateur</title><g fill="none" stroke="#111111" stroke-width="2" stroke-linecap="round" stroke-linejoin="round">
  <rect x="15" y="9" width="18" height="30" rx="3" fill="#ffffff"/>
  <rect x="19" y="13" width="10" height="8" rx="1" fill="#c0392b" fill-opacity="0.15" stroke="#111111"/>
  <circle cx="24" cy="31" r="4" fill="#ffffff" stroke="#111111"/>
  <line x1="24" y1="31" x2="24" y2="28" stroke="#c0392b"/>
</g></symbol>
<symbol id="tm-ce" viewBox="0 0 48 48" overflow="visible" inkscape:label="CE — Coffret électrique"><title>CE — Coffret électrique</title><g fill="none" stroke="#111111" stroke-width="2" stroke-linecap="round" stroke-linejoin="round">
  <rect x="14" y="9" width="20" height="30" rx="2" fill="#ffffff"/>
  <line x1="24" y1="9" x2="24" y2="39"/>
  <path d="M27,15 L20,26 H25 L22,34 L31,22 H25 Z" fill="#c0392b" stroke="none"/>
</g></symbol>
<symbol id="tm-led" viewBox="0 0 48 48" overflow="visible" inkscape:label="LED — Mât LED"><title>LED — Mât LED</title><g fill="none" stroke="#111111" stroke-width="2" stroke-linecap="round" stroke-linejoin="round">
  <line x1="24" y1="40" x2="24" y2="17"/>
  <line x1="19" y1="40" x2="29" y2="40"/>
  <rect x="14" y="11" width="20" height="6" rx="1" fill="#c0392b" fill-opacity="0.15" stroke="#111111"/>
  <line x1="18" y1="18" x2="17" y2="23" stroke="#d97a1a"/>
  <line x1="24" y1="18" x2="24" y2="24" stroke="#d97a1a"/>
  <line x1="30" y1="18" x2="31" y2="23" stroke="#d97a1a"/>
</g></symbol>
<symbol id="tm-hal" viewBox="0 0 48 48" overflow="visible" inkscape:label="HAL — Projecteur halogène"><title>HAL — Projecteur halogène</title><g fill="none" stroke="#111111" stroke-width="2" stroke-linecap="round" stroke-linejoin="round">
  <line x1="26" y1="40" x2="26" y2="26"/>
  <line x1="20" y1="40" x2="32" y2="40"/>
  <rect x="9" y="14" width="16" height="12" rx="3" fill="#ffffff" transform="rotate(-18 17 20)"/>
  <line x1="24" y1="12" x2="28" y2="9" stroke="#d97a1a"/>
  <line x1="28" y1="16" x2="33" y2="15" stroke="#d97a1a"/>
  <line x1="30" y1="21" x2="35" y2="22" stroke="#d97a1a"/>
</g></symbol>
<symbol id="tm-ban" viewBox="0 0 48 48" overflow="visible" inkscape:label="BAN — Banc"><title>BAN — Banc</title><g fill="none" stroke="#111111" stroke-width="2" stroke-linecap="round" stroke-linejoin="round">
  <line x1="10" y1="26" x2="38" y2="26"/>
  <line x1="10" y1="17" x2="38" y2="17"/>
  <line x1="10" y1="17" x2="10" y2="26"/>
  <line x1="38" y1="17" x2="38" y2="26"/>
  <line x1="14" y1="26" x2="14" y2="38"/>
  <line x1="34" y1="26" x2="34" y2="38"/>
</g></symbol>
<symbol id="tm-cha" viewBox="0 0 48 48" overflow="visible" inkscape:label="CHA — Chaise d'arbitre"><title>CHA — Chaise d'arbitre</title><g fill="none" stroke="#111111" stroke-width="2" stroke-linecap="round" stroke-linejoin="round">
  <rect x="16" y="10" width="16" height="6" rx="1" fill="#ffffff"/>
  <line x1="18" y1="10" x2="18" y2="4"/>
  <line x1="30" y1="10" x2="30" y2="4"/>
  <line x1="18" y1="4" x2="30" y2="4"/>
  <line x1="17" y1="16" x2="13" y2="40"/>
  <line x1="31" y1="16" x2="35" y2="40"/>
  <line x1="15" y1="25" x2="33" y2="25"/>
  <line x1="14" y1="33" x2="34" y2="33"/>
</g></symbol>
<symbol id="tm-pou" viewBox="0 0 48 48" overflow="visible" inkscape:label="POU — Poubelle"><title>POU — Poubelle</title><g fill="none" stroke="#111111" stroke-width="2" stroke-linecap="round" stroke-linejoin="round">
  <path d="M17,18 L31,18 L29,39 L19,39 Z" fill="#ffffff"/>
  <rect x="14" y="12" width="20" height="5" rx="1" fill="#ffffff"/>
  <line x1="24" y1="12" x2="24" y2="9"/>
  <line x1="22" y1="23" x2="21" y2="35" stroke="#2b2b2b"/>
  <line x1="27" y1="23" x2="27" y2="35" stroke="#2b2b2b"/>
</g></symbol>
<symbol id="tm-mon" viewBox="0 0 48 48" overflow="visible" inkscape:label="MON — Monnayeur"><title>MON — Monnayeur</title><g fill="none" stroke="#111111" stroke-width="2" stroke-linecap="round" stroke-linejoin="round">
  <line x1="24" y1="42" x2="24" y2="28"/>
  <line x1="18" y1="42" x2="30" y2="42"/>
  <rect x="15" y="9" width="18" height="19" rx="2" fill="#ffffff"/>
  <line x1="20" y1="14" x2="28" y2="14"/>
  <rect x="19" y="18" width="10" height="6" rx="1" fill="#ffffff" stroke="#111111"/>
</g></symbol>
<symbol id="tm-acc" viewBox="0 0 48 48" overflow="visible" inkscape:label="ACC — Portillon"><title>ACC — Portillon</title><g fill="none" stroke="#111111" stroke-width="2" stroke-linecap="round" stroke-linejoin="round">
  <g transform="translate(14,40) scale(0.5)">
    <path d="M0,0 L0,-34 C13,-34 20,-24 20,-17 C20,-24 27,-34 40,-34 L40,0 Z"
          fill="none" stroke="#111111"/>
  </g>
</g></symbol>
<symbol id="tm-nord" viewBox="0 0 48 48" overflow="visible" inkscape:label="N — Nord"><title>N — Nord</title><g fill="none" stroke="#111111" stroke-width="2" stroke-linecap="round" stroke-linejoin="round">
  <circle cx="24" cy="26" r="12" fill="#ffffff"/>
  <path d="M24,15 L28,32 L24,27 L20,32 Z" fill="#2b2b2b" stroke="none"/>
  <text x="24" y="13" text-anchor="middle" font-size="9" font-weight="bold" fill="#2b2b2b" stroke="none" font-family="Arial">N</text>
</g></symbol>
<symbol id="tm-ech" viewBox="0 0 48 48" overflow="visible" inkscape:label="— — Échelle"><title>— — Échelle</title><g fill="none" stroke="#111111" stroke-width="2" stroke-linecap="round" stroke-linejoin="round">
  <rect x="9" y="22" width="7.5" height="6" fill="#2b2b2b" stroke="#111111"/>
  <rect x="16.5" y="22" width="7.5" height="6" fill="#ffffff" stroke="#111111"/>
  <rect x="24" y="22" width="7.5" height="6" fill="#2b2b2b" stroke="#111111"/>
  <rect x="31.5" y="22" width="7.5" height="6" fill="#ffffff" stroke="#111111"/>
  <text x="9" y="19" text-anchor="middle" font-size="8" fill="#2b2b2b" stroke="none" font-family="Arial">0</text>
  <text x="39" y="19" text-anchor="middle" font-size="8" fill="#2b2b2b" stroke="none" font-family="Arial">m</text>
</g></symbol>
<symbol id="tm-etat-confirme" viewBox="-12 -12 24 24" overflow="visible" inkscape:label="État — Confirmé"><title>État — Confirmé</title><path d="M-5,0 L-1,4 L6,-5" fill="none" stroke="#1a7a3a" stroke-width="2.6" stroke-linecap="round" stroke-linejoin="round"/></symbol>
<symbol id="tm-etat-verifier" viewBox="-12 -12 24 24" overflow="visible" inkscape:label="État — À vérifier"><title>État — À vérifier</title><circle r="8" fill="none" stroke="#d97a1a" stroke-width="2"/><path d="M0,-8 A8,8 0 0 0 0,8 Z" fill="#d97a1a" stroke="none"/></symbol>
<symbol id="tm-etat-hs" viewBox="-12 -12 24 24" overflow="visible" inkscape:label="État — Hors service"><title>État — Hors service</title><path d="M-5,-5 L5,5 M5,-5 L-5,5" stroke="#c0392b" stroke-width="2.6" stroke-linecap="round"/></symbol>
<symbol id="tm-etat-interv" viewBox="-12 -12 24 24" overflow="visible" inkscape:label="État — En intervention"><title>État — En intervention</title><path d="M4,-6 A5,5 0 1 0 6,-1 L-4,9 A2.2,2.2 0 0 1 -7,6 L3,-4 A5,5 0 0 1 4,-6 Z" fill="#1a4b9e" stroke="none"/></symbol>
<symbol id="tm-etat-photo" viewBox="-12 -12 24 24" overflow="visible" inkscape:label="État — Photo dispo."><title>État — Photo dispo.</title><rect x="-8" y="-4" width="16" height="11" rx="2" fill="none" stroke="#2b2b2b" stroke-width="2"/><path d="M-4,-4 L-2,-7 L2,-7 L4,-4" fill="none" stroke="#2b2b2b" stroke-width="2" stroke-linejoin="round"/><circle cx="0" cy="2" r="3.2" fill="none" stroke="#2b2b2b" stroke-width="2"/></symbol>
</defs>
<rect x="0" y="0" width="1540" height="1089" fill="#ffffff"/>
<text x="40" y="44" font-size="25" font-weight="bold" fill="#111111">BIBLIOTHÈQUE TENNISMAINTENANCE — SYMBOLES</text>
<text x="40" y="67" font-size="14" fill="#555555">Langage graphique commun (d'inspiration ISO) · module 48 px, trait 2 px · à reporter dans la légende des plans</text>
<line x1="40" y1="79" x2="1500" y2="79" stroke="#cfd4da" stroke-width="1.5"/>
<rect x="40" y="100" width="1460" height="24" rx="4" fill="#1a4b9e" fill-opacity="0.10"/>
<rect x="40" y="100" width="6" height="24" rx="2" fill="#1a4b9e"/>
<text x="58" y="117" font-size="13.5" font-weight="bold" fill="#1a4b9e" letter-spacing="0.5">HYDRAULIQUE</text>
<rect x="48.0" y="128.0" width="192.6" height="104" rx="6" fill="#fcfcfd" stroke="#e6e9ee"/>
<g inkscape:label="AR — Arroseur">
<use href="#tm-ar" x="120.3" y="136.0" width="48" height="48"/>
<text x="144.3" y="202.0" text-anchor="middle" font-size="14" font-weight="bold" fill="#1a4b9e">AR-XX</text>
<text x="144.3" y="219.0" text-anchor="middle" font-size="12" fill="#555555">Arroseur</text>
</g>
<rect x="256.6" y="128.0" width="192.6" height="104" rx="6" fill="#fcfcfd" stroke="#e6e9ee"/>
<g inkscape:label="REG — Regard">
<use href="#tm-reg" x="328.9" y="136.0" width="48" height="48"/>
<text x="352.9" y="202.0" text-anchor="middle" font-size="14" font-weight="bold" fill="#1a7a3a">REG-XX</text>
<text x="352.9" y="219.0" text-anchor="middle" font-size="12" fill="#555555">Regard</text>
</g>
<rect x="465.1" y="128.0" width="192.6" height="104" rx="6" fill="#fcfcfd" stroke="#e6e9ee"/>
<g inkscape:label="SET — Sortie d'eau">
<use href="#tm-set" x="537.4" y="136.0" width="48" height="48"/>
<text x="561.4" y="202.0" text-anchor="middle" font-size="14" font-weight="bold" fill="#1a4b9e">SET-XX</text>
<text x="561.4" y="219.0" text-anchor="middle" font-size="12" fill="#555555">Sortie d'eau</text>
</g>
<rect x="673.7" y="128.0" width="192.6" height="104" rx="6" fill="#fcfcfd" stroke="#e6e9ee"/>
<g inkscape:label="GK — Raccord Geka">
<use href="#tm-gk" x="746.0" y="136.0" width="48" height="48"/>
<text x="770.0" y="202.0" text-anchor="middle" font-size="14" font-weight="bold" fill="#1a4b9e">GK-XX</text>
<text x="770.0" y="219.0" text-anchor="middle" font-size="12" fill="#555555">Raccord Geka</text>
</g>
<rect x="882.3" y="128.0" width="192.6" height="104" rx="6" fill="#fcfcfd" stroke="#e6e9ee"/>
<g inkscape:label="EV — Électrovanne">
<use href="#tm-ev" x="954.6" y="136.0" width="48" height="48"/>
<text x="978.6" y="202.0" text-anchor="middle" font-size="14" font-weight="bold" fill="#1a4b9e">EV-XX</text>
<text x="978.6" y="219.0" text-anchor="middle" font-size="12" fill="#555555">Électrovanne</text>
</g>
<rect x="1090.9" y="128.0" width="192.6" height="104" rx="6" fill="#fcfcfd" stroke="#e6e9ee"/>
<g inkscape:label="VM — Vanne de réglage">
<use href="#tm-vm" x="1163.1" y="136.0" width="48" height="48"/>
<text x="1187.1" y="202.0" text-anchor="middle" font-size="14" font-weight="bold" fill="#1a4b9e">VM-XX</text>
<text x="1187.1" y="219.0" text-anchor="middle" font-size="12" fill="#555555">Vanne de réglage</text>
</g>
<rect x="1299.4" y="128.0" width="192.6" height="104" rx="6" fill="#fcfcfd" stroke="#e6e9ee"/>
<g inkscape:label="VI — Vanne d'isolement">
<use href="#tm-vi" x="1371.7" y="136.0" width="48" height="48"/>
<text x="1395.7" y="202.0" text-anchor="middle" font-size="14" font-weight="bold" fill="#1a4b9e">VI-XX</text>
<text x="1395.7" y="219.0" text-anchor="middle" font-size="12" fill="#555555">Vanne d'isolement</text>
</g>
<rect x="48.0" y="228.0" width="192.6" height="104" rx="6" fill="#fcfcfd" stroke="#e6e9ee"/>
<g inkscape:label="FIL — Filtre">
<use href="#tm-fil" x="120.3" y="236.0" width="48" height="48"/>
<text x="144.3" y="302.0" text-anchor="middle" font-size="14" font-weight="bold" fill="#1a4b9e">FIL-XX</text>
<text x="144.3" y="319.0" text-anchor="middle" font-size="12" fill="#555555">Filtre</text>
</g>
<rect x="256.6" y="228.0" width="192.6" height="104" rx="6" fill="#fcfcfd" stroke="#e6e9ee"/>
<g inkscape:label="CAR — Clapet anti-retour">
<use href="#tm-car" x="328.9" y="236.0" width="48" height="48"/>
<text x="352.9" y="302.0" text-anchor="middle" font-size="14" font-weight="bold" fill="#1a4b9e">CAR-XX</text>
<text x="352.9" y="319.0" text-anchor="middle" font-size="12" fill="#555555">Clapet anti-retour</text>
</g>
<rect x="465.1" y="228.0" width="192.6" height="104" rx="6" fill="#fcfcfd" stroke="#e6e9ee"/>
<g inkscape:label="PRG — Purge / vidange">
<use href="#tm-prg" x="537.4" y="236.0" width="48" height="48"/>
<text x="561.4" y="302.0" text-anchor="middle" font-size="14" font-weight="bold" fill="#1a4b9e">PRG-XX</text>
<text x="561.4" y="319.0" text-anchor="middle" font-size="12" fill="#555555">Purge / vidange</text>
</g>
<rect x="673.7" y="228.0" width="192.6" height="104" rx="6" fill="#fcfcfd" stroke="#e6e9ee"/>
<g inkscape:label="CPT — Compteur d'eau">
<use href="#tm-cpt" x="746.0" y="236.0" width="48" height="48"/>
<text x="770.0" y="302.0" text-anchor="middle" font-size="14" font-weight="bold" fill="#1a4b9e">CPT-XX</text>
<text x="770.0" y="319.0" text-anchor="middle" font-size="12" fill="#555555">Compteur d'eau</text>
</g>
<rect x="882.3" y="228.0" width="192.6" height="104" rx="6" fill="#fcfcfd" stroke="#e6e9ee"/>
<g inkscape:label="— — Canalisation">
<use href="#tm-can" x="954.6" y="236.0" width="48" height="48"/>
<text x="978.6" y="302.0" text-anchor="middle" font-size="14" font-weight="bold" fill="#1a4b9e">Canalisation</text>
</g>
<rect x="40" y="340" width="1460" height="24" rx="4" fill="#c0392b" fill-opacity="0.10"/>
<rect x="40" y="340" width="6" height="24" rx="2" fill="#c0392b"/>
<text x="58" y="357" font-size="13.5" font-weight="bold" fill="#c0392b" letter-spacing="0.5">ÉLECTRICITÉ &amp; ÉCLAIRAGE</text>
<rect x="48.0" y="368.0" width="192.6" height="104" rx="6" fill="#fcfcfd" stroke="#e6e9ee"/>
<g inkscape:label="PROG — Programmateur">
<use href="#tm-prog" x="120.3" y="376.0" width="48" height="48"/>
<text x="144.3" y="442.0" text-anchor="middle" font-size="14" font-weight="bold" fill="#c0392b">PROG-XX</text>
<text x="144.3" y="459.0" text-anchor="middle" font-size="12" fill="#555555">Programmateur</text>
</g>
<rect x="256.6" y="368.0" width="192.6" height="104" rx="6" fill="#fcfcfd" stroke="#e6e9ee"/>
<g inkscape:label="CE — Coffret électrique">
<use href="#tm-ce" x="328.9" y="376.0" width="48" height="48"/>
<text x="352.9" y="442.0" text-anchor="middle" font-size="14" font-weight="bold" fill="#c0392b">CE-XX</text>
<text x="352.9" y="459.0" text-anchor="middle" font-size="12" fill="#555555">Coffret électrique</text>
</g>
<rect x="465.1" y="368.0" width="192.6" height="104" rx="6" fill="#fcfcfd" stroke="#e6e9ee"/>
<g inkscape:label="LED — Mât LED">
<use href="#tm-led" x="537.4" y="376.0" width="48" height="48"/>
<text x="561.4" y="442.0" text-anchor="middle" font-size="14" font-weight="bold" fill="#c0392b">LED-XX</text>
<text x="561.4" y="459.0" text-anchor="middle" font-size="12" fill="#555555">Mât LED</text>
</g>
<rect x="673.7" y="368.0" width="192.6" height="104" rx="6" fill="#fcfcfd" stroke="#e6e9ee"/>
<g inkscape:label="HAL — Projecteur halogène">
<use href="#tm-hal" x="746.0" y="376.0" width="48" height="48"/>
<text x="770.0" y="442.0" text-anchor="middle" font-size="14" font-weight="bold" fill="#c0392b">HAL-XX</text>
<text x="770.0" y="459.0" text-anchor="middle" font-size="12" fill="#555555">Projecteur halogène</text>
</g>
<rect x="40" y="480" width="1460" height="24" rx="4" fill="#2b2b2b" fill-opacity="0.10"/>
<rect x="40" y="480" width="6" height="24" rx="2" fill="#2b2b2b"/>
<text x="58" y="497" font-size="13.5" font-weight="bold" fill="#2b2b2b" letter-spacing="0.5">MOBILIER</text>
<rect x="48.0" y="508.0" width="192.6" height="104" rx="6" fill="#fcfcfd" stroke="#e6e9ee"/>
<g inkscape:label="BAN — Banc">
<use href="#tm-ban" x="120.3" y="516.0" width="48" height="48"/>
<text x="144.3" y="582.0" text-anchor="middle" font-size="14" font-weight="bold" fill="#2b2b2b">Banc</text>
</g>
<rect x="256.6" y="508.0" width="192.6" height="104" rx="6" fill="#fcfcfd" stroke="#e6e9ee"/>
<g inkscape:label="CHA — Chaise d'arbitre">
<use href="#tm-cha" x="328.9" y="516.0" width="48" height="48"/>
<text x="352.9" y="582.0" text-anchor="middle" font-size="14" font-weight="bold" fill="#2b2b2b">Chaise d'arbitre</text>
</g>
<rect x="465.1" y="508.0" width="192.6" height="104" rx="6" fill="#fcfcfd" stroke="#e6e9ee"/>
<g inkscape:label="POU — Poubelle">
<use href="#tm-pou" x="537.4" y="516.0" width="48" height="48"/>
<text x="561.4" y="582.0" text-anchor="middle" font-size="14" font-weight="bold" fill="#2b2b2b">Poubelle</text>
</g>
<rect x="673.7" y="508.0" width="192.6" height="104" rx="6" fill="#fcfcfd" stroke="#e6e9ee"/>
<g inkscape:label="MON — Monnayeur">
<use href="#tm-mon" x="746.0" y="516.0" width="48" height="48"/>
<text x="770.0" y="582.0" text-anchor="middle" font-size="14" font-weight="bold" fill="#2b2b2b">Monnayeur</text>
</g>
<rect x="40" y="620" width="1460" height="24" rx="4" fill="#2b2b2b" fill-opacity="0.10"/>
<rect x="40" y="620" width="6" height="24" rx="2" fill="#2b2b2b"/>
<text x="58" y="637" font-size="13.5" font-weight="bold" fill="#2b2b2b" letter-spacing="0.5">ACCÈS &amp; REPÈRES</text>
<rect x="48.0" y="648.0" width="192.6" height="104" rx="6" fill="#fcfcfd" stroke="#e6e9ee"/>
<g inkscape:label="ACC — Portillon">
<use href="#tm-acc" x="120.3" y="656.0" width="48" height="48"/>
<text x="144.3" y="722.0" text-anchor="middle" font-size="14" font-weight="bold" fill="#2b2b2b">Portillon</text>
</g>
<rect x="256.6" y="648.0" width="192.6" height="104" rx="6" fill="#fcfcfd" stroke="#e6e9ee"/>
<g inkscape:label="N — Nord">
<use href="#tm-nord" x="328.9" y="656.0" width="48" height="48"/>
<text x="352.9" y="722.0" text-anchor="middle" font-size="14" font-weight="bold" fill="#2b2b2b">Nord</text>
</g>
<rect x="465.1" y="648.0" width="192.6" height="104" rx="6" fill="#fcfcfd" stroke="#e6e9ee"/>
<g inkscape:label="— — Échelle">
<use href="#tm-ech" x="537.4" y="656.0" width="48" height="48"/>
<text x="561.4" y="722.0" text-anchor="middle" font-size="14" font-weight="bold" fill="#2b2b2b">Échelle</text>
</g>
<rect x="40" y="760" width="1460" height="24" rx="4" fill="#111111" fill-opacity="0.06"/>
<rect x="40" y="760" width="6" height="24" rx="2" fill="#111111"/>
<text x="58" y="777" font-size="13.5" font-weight="bold" fill="#111111" letter-spacing="0.5">CONVENTIONS</text>
<text x="40" y="807" font-size="12" font-weight="bold" fill="#555555">ÉTATS</text>
<g inkscape:label="État — Confirmé"><use href="#tm-etat-confirme" x="110.0" y="790" width="24" height="24"/></g>
<text x="138.0" y="807" font-size="12.5" fill="#333333">Confirmé</text>
<g inkscape:label="État — À vérifier"><use href="#tm-etat-verifier" x="387.6" y="790" width="24" height="24"/></g>
<text x="415.6" y="807" font-size="12.5" fill="#333333">À vérifier</text>
<g inkscape:label="État — Hors service"><use href="#tm-etat-hs" x="665.2" y="790" width="24" height="24"/></g>
<text x="693.2" y="807" font-size="12.5" fill="#333333">Hors service</text>
<g inkscape:label="État — En intervention"><use href="#tm-etat-interv" x="942.8000000000001" y="790" width="24" height="24"/></g>
<text x="970.8000000000001" y="807" font-size="12.5" fill="#333333">En intervention</text>
<g inkscape:label="État — Photo dispo."><use href="#tm-etat-photo" x="1220.4" y="790" width="24" height="24"/></g>
<text x="1248.4" y="807" font-size="12.5" fill="#333333">Photo dispo.</text>
<text x="40" y="851" font-size="12" font-weight="bold" fill="#555555">COULEURS</text>
<rect x="113.0" y="837" width="18" height="18" rx="3" fill="#1a4b9e"/>
<text x="138.0" y="851" font-size="12.5" fill="#333333">Eau</text>
<rect x="390.6" y="837" width="18" height="18" rx="3" fill="#1a7a3a"/>
<text x="415.6" y="851" font-size="12.5" fill="#333333">Regards</text>
<rect x="668.2" y="837" width="18" height="18" rx="3" fill="#d97a1a"/>
<text x="693.2" y="851" font-size="12.5" fill="#333333">Surface / terrain</text>
<rect x="945.8000000000001" y="837" width="18" height="18" rx="3" fill="#c0392b"/>
<text x="970.8000000000001" y="851" font-size="12.5" fill="#333333">Électricité</text>
<rect x="1223.4" y="837" width="18" height="18" rx="3" fill="#2b2b2b"/>
<text x="1248.4" y="851" font-size="12.5" fill="#333333">Structure</text>
<line x1="40" y1="1051" x2="1500" y2="1051" stroke="#cfd4da" stroke-width="1"/>
<text x="40" y="1071" font-size="12" fill="#777777">Version 1.0 · 07/2026 · A4 paysage (297×210 mm) · domaines à compléter : Clôtures · Sols · Signalisation — n'utiliser aucune couleur hors charte</text>
</svg>
