<?xml version="1.0" encoding="UTF-8" standalone="no"?>
<svg width="1540" height="1030" viewBox="0 0 1540 1030" font-family="Arial, Helvetica, sans-serif" version="1.1" xmlns="http://www.w3.org/2000/svg">
<rect x="0" y="0" width="1540" height="1030" fill="#ffffff"/>
<text x="40" y="46" font-size="26" font-weight="bold" fill="#111111">BIBLIOTHÈQUE D'ICÔNES — RÉSEAU D'ARROSAGE</text>
<text x="40" y="70" font-size="15" fill="#555555">La Pastorale · symboles normalisés pour les plans de maintenance · à reporter dans le cartouche « LÉGENDE »</text>
<line x1="40" y1="82" x2="1500" y2="82" stroke="#cfd4da" stroke-width="1.5"/>
<rect x="40" y="104" width="1460" height="26" rx="4" fill="#1a4b9e" fill-opacity="0.10"/>
<rect x="40" y="104" width="6" height="26" rx="2" fill="#1a4b9e"/>
<text x="58" y="122" font-size="14" font-weight="bold" fill="#1a4b9e" letter-spacing="0.5">POINTS DU PLAN</text>
<rect x="46.0" y="136.0" width="196.6" height="116" rx="8" fill="#fafbfc" stroke="#e6e9ee"/>
<svg x="115.3" y="142.0" width="58" height="58" viewBox="0 0 64 64" overflow="visible"><g fill="none" stroke="#111111" stroke-width="2.6" stroke-linecap="round" stroke-linejoin="round">
  <line x1="12" y1="52" x2="52" y2="52"/>
  <line x1="32" y1="52" x2="32" y2="33"/>
  <circle cx="32" cy="31" r="6" fill="#1a4b9e" stroke="none"/>
  <path d="M32,25 C27,17 21,15 15,15" stroke="#1a4b9e" stroke-dasharray="2 3"/>
  <path d="M32,23 V11" stroke="#1a4b9e" stroke-dasharray="2 3"/>
  <path d="M32,25 C37,17 43,15 49,15" stroke="#1a4b9e" stroke-dasharray="2 3"/>
</g></svg>
<text x="144.3" y="220.0" text-anchor="middle" font-size="15" font-weight="bold" fill="#1a4b9e">AR</text>
<text x="144.3" y="238.0" text-anchor="middle" font-size="12.5" fill="#555555">Arroseur</text>
<rect x="254.6" y="136.0" width="196.6" height="116" rx="8" fill="#fafbfc" stroke="#e6e9ee"/>
<svg x="323.9" y="142.0" width="58" height="58" viewBox="0 0 64 64" overflow="visible"><g fill="none" stroke="#111111" stroke-width="2.6" stroke-linecap="round" stroke-linejoin="round">
  <rect x="16" y="16" width="32" height="32" rx="3" fill="#eaf3ec" stroke="#1a7a3a"/>
  <line x1="24" y1="28" x2="40" y2="28" stroke="#1a7a3a"/>
  <line x1="24" y1="36" x2="40" y2="36" stroke="#1a7a3a"/>
</g></svg>
<text x="352.9" y="220.0" text-anchor="middle" font-size="15" font-weight="bold" fill="#1a7a3a">REG</text>
<text x="352.9" y="238.0" text-anchor="middle" font-size="12.5" fill="#555555">Regard / chambre</text>
<rect x="463.1" y="136.0" width="196.6" height="116" rx="8" fill="#fafbfc" stroke="#e6e9ee"/>
<svg x="532.4" y="142.0" width="58" height="58" viewBox="0 0 64 64" overflow="visible"><g fill="none" stroke="#111111" stroke-width="2.6" stroke-linecap="round" stroke-linejoin="round">
  <path d="M32,13 L51,32 L32,51 L13,32 Z" fill="#ffffff" stroke="#1a4b9e"/>
  <path d="M32,25 C36,31 36,37 32,41 C28,37 28,31 32,25 Z" fill="#1a4b9e" stroke="none"/>
</g></svg>
<text x="561.4" y="220.0" text-anchor="middle" font-size="15" font-weight="bold" fill="#1a4b9e">SET</text>
<text x="561.4" y="238.0" text-anchor="middle" font-size="12.5" fill="#555555">Sortie d'eau</text>
<rect x="671.7" y="136.0" width="196.6" height="116" rx="8" fill="#fafbfc" stroke="#e6e9ee"/>
<svg x="741.0" y="142.0" width="58" height="58" viewBox="0 0 64 64" overflow="visible"><g fill="none" stroke="#111111" stroke-width="2.6" stroke-linecap="round" stroke-linejoin="round">
  <g transform="translate(12,50)">
    <path d="M0,0 L0,-34 C13,-34 20,-24 20,-17 C20,-24 27,-34 40,-34 L40,0 Z"
          fill="none" stroke="#111111"/>
  </g>
</g></svg>
<text x="770.0" y="220.0" text-anchor="middle" font-size="15" font-weight="bold" fill="#111111">ACC</text>
<text x="770.0" y="238.0" text-anchor="middle" font-size="12.5" fill="#555555">Accès (portillon)</text>
<rect x="40" y="264" width="1460" height="26" rx="4" fill="#147a8c" fill-opacity="0.10"/>
<rect x="40" y="264" width="6" height="26" rx="2" fill="#147a8c"/>
<text x="58" y="282" font-size="14" font-weight="bold" fill="#147a8c" letter-spacing="0.5">COMPOSANTS HYDRAULIQUES</text>
<rect x="46.0" y="296.0" width="196.6" height="116" rx="8" fill="#fafbfc" stroke="#e6e9ee"/>
<svg x="115.3" y="302.0" width="58" height="58" viewBox="0 0 64 64" overflow="visible"><g fill="none" stroke="#111111" stroke-width="2.6" stroke-linecap="round" stroke-linejoin="round">
  <line x1="8" y1="38" x2="16" y2="38"/>
  <line x1="48" y1="38" x2="56" y2="38"/>
  <path d="M16,28 L16,48 L32,38 Z" fill="#ffffff"/>
  <path d="M48,28 L48,48 L32,38 Z" fill="#ffffff"/>
  <line x1="32" y1="38" x2="32" y2="24"/>
  <rect x="24" y="10" width="16" height="14" rx="2" fill="#c0392b" stroke="#111111"/>
</g></svg>
<text x="144.3" y="380.0" text-anchor="middle" font-size="15" font-weight="bold" fill="#c0392b">EV</text>
<text x="144.3" y="398.0" text-anchor="middle" font-size="12.5" fill="#555555">Électrovanne</text>
<rect x="254.6" y="296.0" width="196.6" height="116" rx="8" fill="#fafbfc" stroke="#e6e9ee"/>
<svg x="323.9" y="302.0" width="58" height="58" viewBox="0 0 64 64" overflow="visible"><g fill="none" stroke="#111111" stroke-width="2.6" stroke-linecap="round" stroke-linejoin="round">
  <line x1="8" y1="40" x2="18" y2="40"/>
  <line x1="46" y1="40" x2="56" y2="40"/>
  <path d="M18,30 L18,50 L32,40 Z" fill="#ffffff"/>
  <path d="M46,30 L46,50 L32,40 Z" fill="#ffffff"/>
  <line x1="32" y1="40" x2="32" y2="22"/>
  <line x1="22" y1="16" x2="42" y2="16" stroke="#1a4b9e"/>
  <line x1="32" y1="16" x2="32" y2="22" stroke="#1a4b9e"/>
</g></svg>
<text x="352.9" y="380.0" text-anchor="middle" font-size="15" font-weight="bold" fill="#1a4b9e">VM</text>
<text x="352.9" y="398.0" text-anchor="middle" font-size="12.5" fill="#555555">Vanne manuelle</text>
<rect x="463.1" y="296.0" width="196.6" height="116" rx="8" fill="#fafbfc" stroke="#e6e9ee"/>
<svg x="532.4" y="302.0" width="58" height="58" viewBox="0 0 64 64" overflow="visible"><g fill="none" stroke="#111111" stroke-width="2.6" stroke-linecap="round" stroke-linejoin="round">
  <rect x="18" y="30" width="28" height="16" rx="2" fill="#ffffff"/>
  <line x1="8" y1="38" x2="18" y2="38"/>
  <line x1="46" y1="38" x2="56" y2="38"/>
  <path d="M23,38 H41 M37,34 L41,38 L37,42" stroke="#1a4b9e"/>
  <line x1="32" y1="30" x2="32" y2="24"/>
  <circle cx="32" cy="18" r="6" fill="#ffffff" stroke="#111111"/>
  <line x1="32" y1="18" x2="35" y2="14" stroke="#c0392b"/>
</g></svg>
<text x="561.4" y="380.0" text-anchor="middle" font-size="15" font-weight="bold" fill="#147a8c">RP</text>
<text x="561.4" y="398.0" text-anchor="middle" font-size="12.5" fill="#555555">Réducteur de pression</text>
<rect x="671.7" y="296.0" width="196.6" height="116" rx="8" fill="#fafbfc" stroke="#e6e9ee"/>
<svg x="741.0" y="302.0" width="58" height="58" viewBox="0 0 64 64" overflow="visible"><g fill="none" stroke="#111111" stroke-width="2.6" stroke-linecap="round" stroke-linejoin="round">
  <line x1="32" y1="8" x2="32" y2="14"/>
  <line x1="32" y1="50" x2="32" y2="56"/>
  <rect x="21" y="14" width="22" height="36" rx="3" fill="#ffffff"/>
  <line x1="24" y1="20" x2="40" y2="30" stroke="#1a4b9e"/>
  <line x1="24" y1="28" x2="40" y2="38" stroke="#1a4b9e"/>
  <line x1="24" y1="36" x2="40" y2="46" stroke="#1a4b9e"/>
</g></svg>
<text x="770.0" y="380.0" text-anchor="middle" font-size="15" font-weight="bold" fill="#147a8c">FIL</text>
<text x="770.0" y="398.0" text-anchor="middle" font-size="12.5" fill="#555555">Filtre</text>
<rect x="880.3" y="296.0" width="196.6" height="116" rx="8" fill="#fafbfc" stroke="#e6e9ee"/>
<svg x="949.6" y="302.0" width="58" height="58" viewBox="0 0 64 64" overflow="visible"><g fill="none" stroke="#111111" stroke-width="2.6" stroke-linecap="round" stroke-linejoin="round">
  <line x1="8" y1="32" x2="20" y2="32"/>
  <line x1="44" y1="32" x2="56" y2="32"/>
  <circle cx="32" cy="32" r="12" fill="#ffffff"/>
  <path d="M25,32 H39 M35,28 L39,32 L35,36"/>
  <line x1="28" y1="23" x2="38" y2="41" stroke="#1a4b9e"/>
</g></svg>
<text x="978.6" y="380.0" text-anchor="middle" font-size="15" font-weight="bold" fill="#147a8c">CAR</text>
<text x="978.6" y="398.0" text-anchor="middle" font-size="12.5" fill="#555555">Clapet anti-retour</text>
<rect x="1088.9" y="296.0" width="196.6" height="116" rx="8" fill="#fafbfc" stroke="#e6e9ee"/>
<svg x="1158.1" y="302.0" width="58" height="58" viewBox="0 0 64 64" overflow="visible"><g fill="none" stroke="#111111" stroke-width="2.6" stroke-linecap="round" stroke-linejoin="round">
  <path d="M16,20 H38 V28"/>
  <rect x="31" y="28" width="12" height="8" rx="1" fill="#ffffff"/>
  <line x1="37" y1="14" x2="37" y2="20"/>
  <line x1="31" y1="14" x2="43" y2="14"/>
  <path d="M37,44 C39,47 39,50 37,51 C35,50 35,47 37,44 Z" fill="#1a4b9e" stroke="none"/>
</g></svg>
<text x="1187.1" y="380.0" text-anchor="middle" font-size="15" font-weight="bold" fill="#1a4b9e">PRG</text>
<text x="1187.1" y="398.0" text-anchor="middle" font-size="12.5" fill="#555555">Purge / vidange</text>
<rect x="1297.4" y="296.0" width="196.6" height="116" rx="8" fill="#fafbfc" stroke="#e6e9ee"/>
<svg x="1366.7" y="302.0" width="58" height="58" viewBox="0 0 64 64" overflow="visible"><g fill="none" stroke="#111111" stroke-width="2.6" stroke-linecap="round" stroke-linejoin="round">
  <line x1="8" y1="32" x2="19" y2="32"/>
  <line x1="45" y1="32" x2="56" y2="32"/>
  <circle cx="32" cy="32" r="13" fill="#ffffff"/>
  <line x1="32" y1="32" x2="32" y2="23" stroke="#1a4b9e"/>
  <line x1="32" y1="19" x2="32" y2="22"/>
  <line x1="45" y1="32" x2="42" y2="32"/>
  <line x1="19" y1="32" x2="22" y2="32"/>
</g></svg>
<text x="1395.7" y="380.0" text-anchor="middle" font-size="15" font-weight="bold" fill="#147a8c">CPT</text>
<text x="1395.7" y="398.0" text-anchor="middle" font-size="12.5" fill="#555555">Compteur d'eau</text>
<rect x="46.0" y="412.0" width="196.6" height="116" rx="8" fill="#fafbfc" stroke="#e6e9ee"/>
<svg x="115.3" y="418.0" width="58" height="58" viewBox="0 0 64 64" overflow="visible"><g fill="none" stroke="#111111" stroke-width="2.6" stroke-linecap="round" stroke-linejoin="round">
  <circle cx="32" cy="30" r="14" fill="#ffffff"/>
  <path d="M32,30 L24,22 L38,24 Z" fill="#1a4b9e" stroke="none"/>
  <line x1="32" y1="44" x2="32" y2="54"/>
  <line x1="46" y1="30" x2="56" y2="30"/>
  <path d="M50,26 L56,30 L50,34"/>
</g></svg>
<text x="144.3" y="496.0" text-anchor="middle" font-size="15" font-weight="bold" fill="#147a8c">PMP</text>
<text x="144.3" y="514.0" text-anchor="middle" font-size="12.5" fill="#555555">Pompe</text>
<rect x="254.6" y="412.0" width="196.6" height="116" rx="8" fill="#fafbfc" stroke="#e6e9ee"/>
<svg x="323.9" y="418.0" width="58" height="58" viewBox="0 0 64 64" overflow="visible"><g fill="none" stroke="#111111" stroke-width="2.6" stroke-linecap="round" stroke-linejoin="round">
  <path d="M15,18 H49 V47 H15 Z" fill="#ffffff"/>
  <path d="M15,34 H49 V47 H15 Z" fill="#1a4b9e" fill-opacity="0.18" stroke="none"/>
  <path d="M15,34 Q22,30 29,34 T43,34 T49,34" stroke="#1a4b9e"/>
  <line x1="24" y1="12" x2="24" y2="18"/>
</g></svg>
<text x="352.9" y="496.0" text-anchor="middle" font-size="15" font-weight="bold" fill="#1a4b9e">RES</text>
<text x="352.9" y="514.0" text-anchor="middle" font-size="12.5" fill="#555555">Réserve / bâche</text>
<rect x="40" y="540" width="1460" height="26" rx="4" fill="#1a4b9e" fill-opacity="0.10"/>
<rect x="40" y="540" width="6" height="26" rx="2" fill="#1a4b9e"/>
<text x="58" y="558" font-size="14" font-weight="bold" fill="#1a4b9e" letter-spacing="0.5">RÉSEAU / CANALISATIONS</text>
<rect x="46.0" y="572.0" width="196.6" height="116" rx="8" fill="#fafbfc" stroke="#e6e9ee"/>
<svg x="115.3" y="578.0" width="58" height="58" viewBox="0 0 64 64" overflow="visible"><g fill="none" stroke="#111111" stroke-width="2.6" stroke-linecap="round" stroke-linejoin="round">
  <line x1="9" y1="32" x2="55" y2="32" stroke="#1a4b9e" stroke-width="6"/>
</g></svg>
<text x="144.3" y="656.0" text-anchor="middle" font-size="15" font-weight="bold" fill="#1a4b9e">—</text>
<text x="144.3" y="674.0" text-anchor="middle" font-size="12.5" fill="#555555">Canalisation princ.</text>
<rect x="254.6" y="572.0" width="196.6" height="116" rx="8" fill="#fafbfc" stroke="#e6e9ee"/>
<svg x="323.9" y="578.0" width="58" height="58" viewBox="0 0 64 64" overflow="visible"><g fill="none" stroke="#111111" stroke-width="2.6" stroke-linecap="round" stroke-linejoin="round">
  <line x1="9" y1="32" x2="55" y2="32" stroke="#1a4b9e" stroke-width="3.2" stroke-dasharray="7 5"/>
</g></svg>
<text x="352.9" y="656.0" text-anchor="middle" font-size="15" font-weight="bold" fill="#1a4b9e">- -</text>
<text x="352.9" y="674.0" text-anchor="middle" font-size="12.5" fill="#555555">Canalisation sec.</text>
<rect x="463.1" y="572.0" width="196.6" height="116" rx="8" fill="#fafbfc" stroke="#e6e9ee"/>
<svg x="532.4" y="578.0" width="58" height="58" viewBox="0 0 64 64" overflow="visible"><g fill="none" stroke="#111111" stroke-width="2.6" stroke-linecap="round" stroke-linejoin="round">
  <line x1="9" y1="26" x2="55" y2="26" stroke="#1a4b9e" stroke-width="6"/>
  <line x1="32" y1="26" x2="32" y2="53" stroke="#1a4b9e" stroke-width="6"/>
</g></svg>
<text x="561.4" y="656.0" text-anchor="middle" font-size="15" font-weight="bold" fill="#1a4b9e">TE</text>
<text x="561.4" y="674.0" text-anchor="middle" font-size="12.5" fill="#555555">Té / dérivation</text>
<rect x="671.7" y="572.0" width="196.6" height="116" rx="8" fill="#fafbfc" stroke="#e6e9ee"/>
<svg x="741.0" y="578.0" width="58" height="58" viewBox="0 0 64 64" overflow="visible"><g fill="none" stroke="#111111" stroke-width="2.6" stroke-linecap="round" stroke-linejoin="round">
  <path d="M14,53 V30 Q14,18 26,18 H52" fill="none" stroke="#1a4b9e" stroke-width="6"/>
</g></svg>
<text x="770.0" y="656.0" text-anchor="middle" font-size="15" font-weight="bold" fill="#1a4b9e">CD</text>
<text x="770.0" y="674.0" text-anchor="middle" font-size="12.5" fill="#555555">Coude</text>
<rect x="880.3" y="572.0" width="196.6" height="116" rx="8" fill="#fafbfc" stroke="#e6e9ee"/>
<svg x="949.6" y="578.0" width="58" height="58" viewBox="0 0 64 64" overflow="visible"><g fill="none" stroke="#111111" stroke-width="2.6" stroke-linecap="round" stroke-linejoin="round">
  <line x1="9" y1="32" x2="41" y2="32" stroke="#1a4b9e" stroke-width="6"/>
  <rect x="41" y="22" width="9" height="20" rx="2" fill="#1a4b9e" stroke="none"/>
</g></svg>
<text x="978.6" y="656.0" text-anchor="middle" font-size="15" font-weight="bold" fill="#1a4b9e">BCH</text>
<text x="978.6" y="674.0" text-anchor="middle" font-size="12.5" fill="#555555">Bouchon / fin ligne</text>
<rect x="40" y="700" width="1460" height="26" rx="4" fill="#c0392b" fill-opacity="0.10"/>
<rect x="40" y="700" width="6" height="26" rx="2" fill="#c0392b"/>
<text x="58" y="718" font-size="14" font-weight="bold" fill="#c0392b" letter-spacing="0.5">COMMANDE &amp; ÉLECTRIQUE</text>
<rect x="46.0" y="732.0" width="196.6" height="116" rx="8" fill="#fafbfc" stroke="#e6e9ee"/>
<svg x="115.3" y="738.0" width="58" height="58" viewBox="0 0 64 64" overflow="visible"><g fill="none" stroke="#111111" stroke-width="2.6" stroke-linecap="round" stroke-linejoin="round">
  <rect x="17" y="12" width="30" height="40" rx="3" fill="#ffffff"/>
  <rect x="22" y="18" width="20" height="11" rx="1" fill="#c0392b" fill-opacity="0.16" stroke="#111111"/>
  <circle cx="32" cy="41" r="5" fill="#ffffff" stroke="#111111"/>
  <line x1="32" y1="41" x2="32" y2="37" stroke="#c0392b"/>
  <circle cx="24" cy="41" r="1.6" fill="#111111" stroke="none"/>
  <circle cx="40" cy="41" r="1.6" fill="#111111" stroke="none"/>
</g></svg>
<text x="144.3" y="816.0" text-anchor="middle" font-size="15" font-weight="bold" fill="#c0392b">PROG</text>
<text x="144.3" y="834.0" text-anchor="middle" font-size="12.5" fill="#555555">Programmateur</text>
<rect x="254.6" y="732.0" width="196.6" height="116" rx="8" fill="#fafbfc" stroke="#e6e9ee"/>
<svg x="323.9" y="738.0" width="58" height="58" viewBox="0 0 64 64" overflow="visible"><g fill="none" stroke="#111111" stroke-width="2.6" stroke-linecap="round" stroke-linejoin="round">
  <rect x="16" y="12" width="32" height="40" rx="2" fill="#ffffff"/>
  <line x1="32" y1="12" x2="32" y2="52"/>
  <path d="M35,20 L26,34 H32 L29,44 L40,29 H33 Z" fill="#c0392b" stroke="none"/>
</g></svg>
<text x="352.9" y="816.0" text-anchor="middle" font-size="15" font-weight="bold" fill="#c0392b">CE</text>
<text x="352.9" y="834.0" text-anchor="middle" font-size="12.5" fill="#555555">Coffret électrique</text>
<rect x="463.1" y="732.0" width="196.6" height="116" rx="8" fill="#fafbfc" stroke="#e6e9ee"/>
<svg x="532.4" y="738.0" width="58" height="58" viewBox="0 0 64 64" overflow="visible"><g fill="none" stroke="#111111" stroke-width="2.6" stroke-linecap="round" stroke-linejoin="round">
  <path d="M20,30 A9,9 0 0 1 37,27 A8,8 0 0 1 45,35 H23 A6,6 0 0 1 20,30 Z"
        fill="#ffffff" stroke="#111111"/>
  <line x1="24" y1="40" x2="22" y2="48" stroke="#1a4b9e"/>
  <line x1="32" y1="40" x2="30" y2="48" stroke="#1a4b9e"/>
  <line x1="40" y1="40" x2="38" y2="48" stroke="#1a4b9e"/>
</g></svg>
<text x="561.4" y="816.0" text-anchor="middle" font-size="15" font-weight="bold" fill="#c0392b">CPL</text>
<text x="561.4" y="834.0" text-anchor="middle" font-size="12.5" fill="#555555">Capteur de pluie</text>
<rect x="671.7" y="732.0" width="196.6" height="116" rx="8" fill="#fafbfc" stroke="#e6e9ee"/>
<svg x="741.0" y="738.0" width="58" height="58" viewBox="0 0 64 64" overflow="visible"><g fill="none" stroke="#111111" stroke-width="2.6" stroke-linecap="round" stroke-linejoin="round">
  <rect x="15" y="18" width="34" height="28" rx="2" fill="#ffffff"/>
  <circle cx="28" cy="32" r="7" fill="none" stroke="#c0392b"/>
  <circle cx="36" cy="32" r="7" fill="none" stroke="#c0392b"/>
  <line x1="10" y1="32" x2="15" y2="32"/>
  <line x1="49" y1="32" x2="54" y2="32"/>
</g></svg>
<text x="770.0" y="816.0" text-anchor="middle" font-size="15" font-weight="bold" fill="#c0392b">TR</text>
<text x="770.0" y="834.0" text-anchor="middle" font-size="12.5" fill="#555555">Transformateur</text>
<rect x="40" y="860" width="1460" height="26" rx="4" fill="#111111" fill-opacity="0.10"/>
<rect x="40" y="860" width="6" height="26" rx="2" fill="#111111"/>
<text x="58" y="878" font-size="14" font-weight="bold" fill="#111111" letter-spacing="0.5">REPÈRES &amp; ANNOTATIONS</text>
<rect x="46.0" y="892.0" width="196.6" height="116" rx="8" fill="#fafbfc" stroke="#e6e9ee"/>
<svg x="115.3" y="898.0" width="58" height="58" viewBox="0 0 64 64" overflow="visible"><g fill="none" stroke="#111111" stroke-width="2.6" stroke-linecap="round" stroke-linejoin="round">
  <circle cx="32" cy="35" r="14" fill="#ffffff"/>
  <path d="M32,22 L37,42 L32,36 L27,42 Z" fill="#111111" stroke="none"/>
  <text x="32" y="20" text-anchor="middle" font-size="11" font-weight="bold"
        fill="#111111" stroke="none" font-family="Arial">N</text>
</g></svg>
<text x="144.3" y="976.0" text-anchor="middle" font-size="15" font-weight="bold" fill="#111111">N</text>
<text x="144.3" y="994.0" text-anchor="middle" font-size="12.5" fill="#555555">Nord</text>
<rect x="254.6" y="892.0" width="196.6" height="116" rx="8" fill="#fafbfc" stroke="#e6e9ee"/>
<svg x="323.9" y="898.0" width="58" height="58" viewBox="0 0 64 64" overflow="visible"><g fill="none" stroke="#111111" stroke-width="2.6" stroke-linecap="round" stroke-linejoin="round">
  <rect x="11" y="19" width="42" height="26" fill="#fbefe2" stroke="#111111"/>
  <line x1="32" y1="16" x2="32" y2="48" stroke="#d97a1a" stroke-dasharray="3 3"/>
  <line x1="11" y1="24" x2="53" y2="24"/>
  <line x1="11" y1="40" x2="53" y2="40"/>
  <line x1="22" y1="24" x2="22" y2="40"/>
  <line x1="42" y1="24" x2="42" y2="40"/>
</g></svg>
<text x="352.9" y="976.0" text-anchor="middle" font-size="15" font-weight="bold" fill="#d97a1a">—</text>
<text x="352.9" y="994.0" text-anchor="middle" font-size="12.5" fill="#555555">Court de tennis</text>
<rect x="463.1" y="892.0" width="196.6" height="116" rx="8" fill="#fafbfc" stroke="#e6e9ee"/>
<svg x="532.4" y="898.0" width="58" height="58" viewBox="0 0 64 64" overflow="visible"><g fill="none" stroke="#111111" stroke-width="2.6" stroke-linecap="round" stroke-linejoin="round">
  <rect x="12" y="30" width="10" height="8" fill="#111111" stroke="#111111"/>
  <rect x="22" y="30" width="10" height="8" fill="#ffffff" stroke="#111111"/>
  <rect x="32" y="30" width="10" height="8" fill="#111111" stroke="#111111"/>
  <rect x="42" y="30" width="10" height="8" fill="#ffffff" stroke="#111111"/>
  <text x="12" y="27" text-anchor="middle" font-size="9" fill="#111111" stroke="none" font-family="Arial">0</text>
  <text x="52" y="27" text-anchor="middle" font-size="9" fill="#111111" stroke="none" font-family="Arial">m</text>
</g></svg>
<text x="561.4" y="976.0" text-anchor="middle" font-size="15" font-weight="bold" fill="#111111">—</text>
<text x="561.4" y="994.0" text-anchor="middle" font-size="12.5" fill="#555555">Échelle</text>
<line x1="40" y1="990" x2="1500" y2="990" stroke="#cfd4da" stroke-width="1"/>
<text x="40" y="1010" font-size="12" fill="#777777">Version 1.0 · 07/2026 · A4 paysage · palette : bleu #1a4b9e (eau) · vert #1a7a3a (regard) · rouge #c0392b (électrique) · orange #d97a1a (surface)</text>
</svg>
